<svg width="140" height="48" viewBox="0 0 140 48" fill="none" xmlns="http://www.w3.org/2000/svg">
<rect width="140" height="48" fill="white"/>
<path d="M50.467 9C50.467 12.121 50.453 15.257 50.467 18.379C50.467 19.991 51.167 21.757 53.104 21.783C54.079 21.807 54.805 21.373 55.293 20.567C55.807 19.697 55.913 18.737 55.913 17.764C55.899 17.061 55.846 16.371 55.57 15.704C55.16 14.732 54.187 14.095 53.104 14.092C52.444 14.092 52.128 14.284 51.574 14.565V13.19C52.181 12.815 52.8786 12.6121 53.592 12.603C56.466 12.603 57.758 15.277 57.758 17.771C57.758 20.343 56.453 23.248 53.104 23.248C51.707 23.248 50.942 22.583 50.296 21.687L50.3 21.681L50.194 21.655V23.242H48.64V9H50.468H50.467ZM28.216 9V18.379C28.216 19.991 28.928 21.757 30.853 21.783C31.828 21.807 32.554 21.373 33.042 20.567C33.569 19.697 33.675 18.737 33.662 17.764C33.662 17.061 33.609 16.371 33.332 15.704C32.914 14.733 31.938 14.098 30.853 14.092C30.193 14.092 29.89 14.284 29.336 14.565V13.19C29.942 12.8128 30.6402 12.6097 31.354 12.603C34.229 12.603 35.507 15.277 35.507 17.771C35.507 20.343 34.202 23.248 30.867 23.248C29.469 23.248 28.691 22.583 28.045 21.687V21.681L27.939 21.655V23.242H26.397V9H28.216ZM63.906 12.597C65.766 12.597 67.796 13.403 67.796 15.424V20.953C67.796 21.937 68.376 21.822 69.194 21.746V22.859C69.194 22.859 68.85 23.178 68.086 23.178C67.045 23.178 66.386 22.769 66.267 21.694C65.107 22.718 64.46 23.281 62.391 23.242C60.713 23.242 59.378 22.207 59.285 20.568L59.279 20.388C59.279 19.058 59.869 18.084 61.005 17.573C61.942 17.143 63.63 17.048 64.737 16.921V18.289C63.472 18.469 61.072 18.494 61.072 20.132C61.072 21.419 61.824 21.847 63.062 21.847C64.421 21.847 66.175 20.953 66.155 19.467L66.169 15.885C66.169 14.324 65.138 14.068 63.781 14.068C62.161 14.081 61.712 14.528 61.382 15.975H59.82C59.673 13.466 61.902 12.597 63.907 12.597H63.906ZM41.678 12.597C43.536 12.597 45.567 13.403 45.567 15.424V20.953C45.567 21.937 46.147 21.822 46.965 21.746V22.859C46.965 22.859 46.621 23.178 45.857 23.178C44.816 23.178 44.157 22.769 44.037 21.694C42.877 22.718 42.231 23.281 40.161 23.242C38.484 23.242 37.149 22.207 37.056 20.568L37.05 20.388C37.05 19.058 37.64 18.084 38.776 17.573C39.713 17.143 41.401 17.048 42.508 16.921V18.289C41.242 18.469 38.843 18.494 38.843 20.132C38.843 21.419 39.593 21.847 40.833 21.847C42.192 21.847 43.946 20.953 43.926 19.467L43.94 15.885C43.94 14.324 42.909 14.068 41.552 14.068C39.944 14.081 39.483 14.528 39.153 15.975H37.591C37.444 13.466 39.673 12.597 41.678 12.597V12.597ZM10.628 12.596C12.488 12.596 14.517 13.402 14.517 15.423V20.951C14.517 21.936 15.097 21.821 15.914 21.744V22.858C15.914 22.858 15.573 23.177 14.807 23.177C13.766 23.177 13.094 22.767 12.988 21.693C11.828 22.716 11.181 23.279 9.112 23.241C7.433 23.241 6.098 22.206 6.005 20.567L6 20.388C6 19.058 6.59 18.084 7.727 17.573C8.664 17.143 10.35 17.048 11.446 16.921V18.289C10.193 18.469 7.794 18.494 7.794 20.132C7.794 21.419 8.544 21.847 9.784 21.847C11.143 21.847 12.876 20.953 12.876 19.467V15.884C12.889 14.324 11.861 14.068 10.504 14.068C8.884 14.08 8.433 14.528 8.104 15.974H6.527C6.397 13.466 8.611 12.597 10.627 12.597L10.628 12.596ZM23.838 12.596V23.242H21.994V12.596H23.839H23.838ZM78.158 12.596V23.242H76.313V12.596H78.158ZM73.756 21.296V23.241H71.752V21.296H73.756ZM85.558 12.186C85.888 12.186 86 12.263 86 12.615V14.074H85.41C83.736 14.087 82.563 15.217 82.563 16.851V23.241H80.717V12.596H82.443V14.118C82.47 14.131 82.483 14.144 82.51 14.144C82.602 14.028 82.682 13.901 82.76 13.785C83.446 12.839 84.303 12.185 85.558 12.185V12.186ZM19.434 9V23.228H17.589V9H19.434Z" fill="black"/>
<path d="M129.654 34.257V38.687C129.654 38.765 129.649 38.842 129.641 38.919C136.141 39.086 138.231 34.069 138.231 34.069C135.023 32.751 131.843 33.413 129.654 34.257" fill="#231F20"/>
<path d="M129.796 34.923V38.839C129.796 39.115 129.743 39.387 129.641 39.642C134.174 42.932 138.707 40.379 138.707 40.379C136.922 36.352 132.031 35.284 129.797 34.923" fill="#FDB913"/>
<path d="M98.317 12.681V21.578H99.493V27.509H98.317V34.923H129.493V12.681H98.317Z" fill="white"/>
<path d="M91.002 28.293C91.002 28.293 96.864 22.156 97.222 12.681H110.715C110.715 12.681 111.337 27.616 101.835 30.459C101.835 30.459 103.922 28.699 102.455 23.871C102.455 23.871 102.228 29.974 94.997 31.722C94.997 31.722 98.593 27.887 98.727 24.683C98.727 24.683 96.195 28.248 91 28.293" fill="#231F20"/>
<path d="M129.232 12.2V34.654H98.418V28.432H97.84V39.162C97.845 40.355 98.8 41.32 99.977 41.323H127.673C128.853 41.32 129.807 40.353 129.811 39.159V12.201H129.231L129.232 12.2Z" fill="#231F20"/>
<path d="M129.81 12.84V7.525C129.805 6.133 128.695 5.006 127.323 5H99.69C98.317 5.006 97.207 6.133 97.203 7.524V12.841H129.811L129.81 12.84Z" fill="#FDB913"/>
<path d="M117.086 20.757C117.442 22.432 118.985 23.565 120.662 23.382C122.339 23.199 123.61 21.759 123.607 20.045C123.607 19.829 123.587 19.613 123.545 19.401L117.085 20.757H117.086ZM118.03 19.004L123.727 17.797C123.727 17.797 124.76 17.497 125.675 18.13C125.485 18.475 125.165 18.725 124.79 18.823L116.85 20.361H116.496L116.319 19.818L116.674 19.788L116.644 19.26L115.958 18.288L115.813 17.726L116.201 17.641L118.031 19.004H118.03ZM115.865 30.922H110.246V30.21H115.811C116.04 30.172 117.86 29.847 119.398 28.842L119.79 29.439C118.017 30.597 115.973 30.906 115.89 30.919L115.865 30.922V30.922Z" fill="#231F20"/>
<path d="M5.29623 38.715C5.90383 38.519 6.3579 38.323 6.65843 38.127C6.9655 37.9375 7.17457 37.7187 7.28563 37.4704C7.3967 37.2287 7.45223 36.9085 7.45223 36.51C7.45223 36.0527 7.3869 35.236 7.25623 34.06L8.13823 33.815L8.16763 34.3932C8.21337 35.3536 8.23623 35.9285 8.23623 36.118C8.23623 36.7387 8.15457 37.2646 7.99123 37.6958C7.8279 38.1335 7.55677 38.5027 7.17783 38.8032C6.7989 39.1037 6.28603 39.352 5.63923 39.548L5.29623 38.715Z" fill="black"/>
<path d="M13.8659 37H12.9937C12.8042 37.7056 12.4253 38.2675 11.8569 38.6856C11.295 39.1037 10.5437 39.3912 9.60288 39.548L9.30888 38.666C9.94914 38.5353 10.4685 38.3949 10.8671 38.2446C11.2656 38.0943 11.5759 37.9147 11.7981 37.7056C12.0202 37.4965 12.177 37.2417 12.2685 36.9412C11.9287 36.9804 11.5139 37 11.0239 37C10.4947 37 10.1092 36.8824 9.86748 36.6472C9.62574 36.412 9.50488 36.1049 9.50488 35.726C9.50488 35.4647 9.57674 35.0302 9.72048 34.4226L9.84788 33.815C9.86748 33.7235 9.93608 33.6288 10.0537 33.5308C10.1778 33.4328 10.3477 33.3511 10.5633 33.2858C10.7789 33.2139 11.0304 33.178 11.3179 33.178C11.8993 33.178 12.3469 33.3936 12.6605 33.8248C12.9741 34.256 13.1309 34.9224 13.1309 35.824C13.1309 35.9351 13.1276 36.0167 13.1211 36.069H13.8659V37ZM12.3763 36.069C12.3763 35.5659 12.3338 35.1707 12.2489 34.8832C12.1639 34.5892 12.0333 34.3801 11.8569 34.256C11.687 34.1253 11.4583 34.06 11.1709 34.06C10.9422 34.06 10.7233 34.0861 10.5143 34.1384C10.4489 34.3997 10.3934 34.6513 10.3477 34.893C10.3085 35.1347 10.2889 35.3144 10.2889 35.432C10.2889 35.6541 10.3575 35.8175 10.4947 35.922C10.6319 36.02 10.8573 36.069 11.1709 36.069H12.3763Z" fill="black"/>
<path d="M16.4656 35.824C16.4656 36.0984 16.397 36.3205 16.2598 36.4904C16.1226 36.6603 15.8808 36.7877 15.5346 36.8726C15.1948 36.9575 14.7212 37 14.1136 37H13.8686C13.7967 37 13.7477 36.9673 13.7216 36.902C13.6889 36.8367 13.6726 36.7125 13.6726 36.5296C13.6726 36.3532 13.6889 36.2323 13.7216 36.167C13.7477 36.1017 13.7967 36.069 13.8686 36.069H14.3586C15.0054 36.069 15.4529 36.02 15.7012 35.922C15.7012 35.9155 15.6816 35.7489 15.6424 35.4222C15.6358 35.3634 15.6064 35.1445 15.5542 34.7656C15.5084 34.3801 15.4856 34.0469 15.4856 33.766C15.4856 33.6353 15.4954 33.521 15.515 33.423L16.3382 33.276V33.619C16.3382 33.8215 16.361 34.2429 16.4068 34.8832C16.446 35.3667 16.4656 35.6803 16.4656 35.824ZM13.9176 31.5708C13.9894 31.4924 14.094 31.4401 14.2312 31.414C14.3749 31.3813 14.6134 31.365 14.9466 31.365H16.7596V32.149H14.9466C14.5546 32.149 14.2606 32.1817 14.0646 32.247L13.9176 31.5708Z" fill="black"/>
<path d="M19.7045 36.265C19.7045 36.4871 19.7633 36.6668 19.8809 36.804C20.0051 36.9347 20.1815 37 20.4101 37C20.6453 37 20.8217 36.9412 20.9393 36.8236C21.0635 36.706 21.1255 36.5361 21.1255 36.314C21.1255 36.0984 21.0667 35.9318 20.9491 35.8142C20.8315 35.6966 20.6584 35.6345 20.4297 35.628C20.482 35.4451 20.5833 35.2295 20.7335 34.9812C20.8903 34.7329 21.0537 34.5239 21.2235 34.354L20.7825 33.962C20.4559 34.3148 20.1945 34.697 19.9985 35.1086C19.8025 35.5202 19.7045 35.9057 19.7045 36.265Z" fill="black"/>
<path d="M28.4748 34.501C28.4748 35.0629 28.5695 35.4647 28.759 35.7064C28.9484 35.9481 29.262 36.069 29.6998 36.069V37C29.3731 37 29.1085 36.9641 28.906 36.8922C28.71 36.8138 28.5662 36.6897 28.4748 36.5198V37.392C28.4748 38.0323 28.1808 38.5353 27.5928 38.9012C27.0048 39.2671 26.1881 39.45 25.1428 39.45C24.2804 39.45 23.6401 39.2703 23.222 38.911C22.8038 38.5517 22.5948 38.0453 22.5948 37.392C22.5948 37.1437 22.6209 36.8955 22.6732 36.6472C22.7254 36.3989 22.8006 36.1049 22.8986 35.7652C22.9508 35.5757 22.9998 35.3863 23.0456 35.1968C23.0978 35.0008 23.1272 34.8342 23.1338 34.697L23.8198 34.648C23.8263 34.6937 23.8296 34.7591 23.8296 34.844C23.8296 34.9877 23.8132 35.1413 23.7806 35.3046C23.7479 35.4614 23.7022 35.6574 23.6434 35.8926C23.565 36.1605 23.5062 36.3989 23.467 36.608C23.4278 36.8171 23.4082 37.0294 23.4082 37.245C23.4082 37.6501 23.5617 37.9637 23.8688 38.1858C24.1758 38.4079 24.6495 38.519 25.2898 38.519C25.7536 38.519 26.1718 38.4733 26.5442 38.3818C26.9231 38.2969 27.2171 38.176 27.4262 38.0192C27.6352 37.8624 27.7398 37.686 27.7398 37.49L27.6908 32.002C27.6842 31.316 27.694 30.8227 27.7202 30.5222C27.7528 30.2217 27.8084 29.9963 27.8868 29.846L28.6218 30.042C28.5564 30.2837 28.514 30.5647 28.4944 30.8848C28.4813 31.1984 28.4748 31.6198 28.4748 32.149V34.501Z" fill="black"/>
<path d="M32.5889 34.844C32.5889 35.3013 32.6771 35.6215 32.8535 35.8044C33.0364 35.9808 33.3402 36.069 33.7649 36.069V37C33.3075 37 32.9449 36.9379 32.6771 36.8138C32.4157 36.6831 32.2361 36.4871 32.1381 36.2258C32.0139 36.4871 31.7918 36.6831 31.4717 36.8138C31.1581 36.9379 30.7301 37 30.1879 37H29.6979C29.6195 37 29.5672 36.9706 29.5411 36.9118C29.5149 36.8465 29.5019 36.7191 29.5019 36.5296C29.5019 36.3532 29.5182 36.2323 29.5509 36.167C29.577 36.1017 29.626 36.069 29.6979 36.069H30.2369C30.6681 36.069 30.9947 36.0363 31.2169 35.971C31.439 35.9057 31.5925 35.7946 31.6775 35.6378C31.7624 35.481 31.8049 35.2491 31.8049 34.942V33.913L32.5889 33.766V34.844ZM30.2369 32.0608C30.3087 31.9824 30.4133 31.9301 30.5505 31.904C30.6942 31.8713 30.9327 31.855 31.2659 31.855H33.0789V32.639H31.2659C30.8739 32.639 30.5799 32.6717 30.3839 32.737L30.2369 32.0608Z" fill="black"/>
<path d="M37.7832 33.178C38.5215 33.5569 39.054 33.8509 39.3806 34.06C39.7138 34.2691 39.9392 34.4585 40.0568 34.6284C40.1744 34.7917 40.2332 34.9943 40.2332 35.236C40.2332 35.8371 40.0993 36.2977 39.8314 36.6178C39.5636 36.9379 39.1912 37.098 38.7142 37.098C38.3876 37.098 37.9694 37.0523 37.4598 36.9608C36.9568 36.8693 36.4962 36.7615 36.078 36.6374C35.5684 36.8791 34.7975 37 33.7652 37C33.6868 37 33.6346 36.9706 33.6084 36.9118C33.5823 36.8465 33.5692 36.7191 33.5692 36.5296C33.5692 36.3532 33.5856 36.2323 33.6182 36.167C33.6444 36.1017 33.6934 36.069 33.7652 36.069C34.2683 36.069 34.6113 36.0657 34.7942 36.0592C34.5982 35.7979 34.5002 35.4418 34.5002 34.991C34.5002 34.6186 34.5852 34.2593 34.755 33.913C34.9249 33.5667 35.1568 33.2858 35.4508 33.0702C35.7448 32.8546 36.0715 32.7435 36.4308 32.737C36.3851 32.5541 36.3622 32.3417 36.3622 32.1L37.1462 31.904C37.1724 32.2895 37.2279 32.5704 37.3128 32.7468C37.4043 32.9232 37.5611 33.0669 37.7832 33.178ZM36.4602 33.472C36.2773 33.472 36.0911 33.5341 35.9016 33.6582C35.7187 33.7823 35.5652 33.9555 35.441 34.1776C35.3169 34.3932 35.2548 34.6317 35.2548 34.893C35.2548 35.1217 35.3104 35.3177 35.4214 35.481C35.5325 35.6378 35.7318 35.7652 36.0192 35.8632C36.4178 35.7456 36.7118 35.5725 36.9012 35.3438C37.0972 35.1086 37.1952 34.8277 37.1952 34.501C37.1952 34.1678 37.1299 33.913 36.9992 33.7366C36.8686 33.5602 36.6889 33.472 36.4602 33.472ZM38.7632 36.216C38.9854 36.216 39.1552 36.1539 39.2728 36.0298C39.3904 35.9057 39.4492 35.6737 39.4492 35.334C39.4492 35.1968 39.3414 35.0433 39.1258 34.8734C38.9168 34.7035 38.5052 34.4585 37.891 34.1384C37.9172 34.2364 37.9302 34.3409 37.9302 34.452C37.9302 34.7917 37.8682 35.0988 37.744 35.3732C37.6199 35.6411 37.4337 35.8632 37.1854 36.0396C37.7538 36.1572 38.2798 36.216 38.7632 36.216Z" fill="black"/>
<path d="M43.0848 36.265C43.0848 36.4871 43.1436 36.6668 43.2612 36.804C43.3853 36.9347 43.5617 37 43.7904 37C44.0256 37 44.202 36.9412 44.3196 36.8236C44.4437 36.706 44.5058 36.5361 44.5058 36.314C44.5058 36.0984 44.447 35.9318 44.3294 35.8142C44.2118 35.6966 44.0387 35.6345 43.81 35.628C43.8623 35.4451 43.9635 35.2295 44.1138 34.9812C44.2706 34.7329 44.4339 34.5239 44.6038 34.354L44.1628 33.962C43.8361 34.3148 43.5748 34.697 43.3788 35.1086C43.1828 35.5202 43.0848 35.9057 43.0848 36.265Z" fill="black"/>
<path d="M52.051 36.118C52.2797 36.0853 52.737 36.069 53.423 36.069V37C52.7697 37 52.2895 36.9869 51.9824 36.9608C51.6819 36.9281 51.3618 36.8759 51.022 36.804C50.8064 36.8497 50.4765 36.8955 50.0322 36.9412C49.5945 36.9804 49.2384 37 48.964 37C48.0428 37 47.3274 36.9575 46.8178 36.8726C46.3148 36.7811 45.9358 36.6439 45.681 36.461L45.975 35.726C46.3082 35.8959 46.6741 36.0004 47.0726 36.0396C47.0269 35.9285 47.004 35.7913 47.004 35.628C47.004 35.4973 47.0138 35.383 47.0334 35.285C47.053 35.1805 47.0857 35.0596 47.1314 34.9224C47.1837 34.7395 47.2229 34.5696 47.249 34.4128C47.2817 34.256 47.298 34.0567 47.298 33.815V32.198C47.298 31.8125 47.285 31.4336 47.2588 31.0612C47.2327 30.6823 47.1968 30.3752 47.151 30.14L47.886 29.846C47.9579 30.0159 48.0069 30.2576 48.033 30.5712C48.0657 30.8783 48.082 31.3062 48.082 31.855V33.276C48.082 33.6549 48.0526 33.9489 47.9938 34.158C48.3466 33.8052 48.853 33.5047 49.5128 33.2564C50.1727 33.0081 50.7901 32.884 51.365 32.884C51.5284 32.884 51.7048 32.982 51.8942 33.178C52.0902 33.374 52.2536 33.6288 52.3842 33.9424C52.5214 34.2495 52.59 34.5663 52.59 34.893C52.59 35.1739 52.5378 35.4222 52.4332 35.6378C52.3352 35.8534 52.2078 36.0135 52.051 36.118ZM49.16 36.0984C49.8134 36.0984 50.3328 36.0625 50.7182 35.9906C51.1037 35.9122 51.3814 35.7946 51.5512 35.6378C51.7211 35.4745 51.806 35.2589 51.806 34.991C51.806 34.7427 51.7472 34.5108 51.6296 34.2952C51.5186 34.0796 51.3781 33.9032 51.2082 33.766C50.7117 33.766 50.1956 33.8607 49.6598 34.0502C49.1241 34.2331 48.6766 34.4618 48.3172 34.7362C47.9644 35.0106 47.788 35.2589 47.788 35.481C47.788 35.6443 47.8305 35.7717 47.9154 35.8632C48.0004 35.9481 48.1408 36.0102 48.3368 36.0494C48.5328 36.0821 48.8072 36.0984 49.16 36.0984Z" fill="black"/>
<path d="M56.3137 34.844C56.3137 35.3013 56.4019 35.6215 56.5783 35.8044C56.7612 35.9808 57.065 36.069 57.4897 36.069V37C57.0323 37 56.6697 36.9379 56.4019 36.8138C56.1405 36.6831 55.9609 36.4871 55.8629 36.2258C55.7387 36.4871 55.5166 36.6831 55.1965 36.8138C54.8829 36.9379 54.4549 37 53.9127 37H53.4227C53.3443 37 53.292 36.9706 53.2659 36.9118C53.2397 36.8465 53.2267 36.7191 53.2267 36.5296C53.2267 36.3532 53.243 36.2323 53.2757 36.167C53.3018 36.1017 53.3508 36.069 53.4227 36.069H53.9617C54.3929 36.069 54.7195 36.0363 54.9417 35.971C55.1638 35.9057 55.3173 35.7946 55.4023 35.6378C55.4872 35.481 55.5297 35.2491 55.5297 34.942V33.913L56.3137 33.766V34.844ZM53.1777 38.7738C53.2495 38.6954 53.3541 38.6399 53.4913 38.6072C53.635 38.5811 53.8735 38.568 54.2067 38.568H56.0197V39.352H54.2067C53.8147 39.352 53.5207 39.3847 53.3247 39.45L53.1777 38.7738Z" fill="black"/>
<path d="M59.597 34.599C59.597 35.1347 59.6787 35.5137 59.842 35.7358C60.0119 35.9579 60.3222 36.069 60.773 36.069V37C59.8453 37 59.3128 36.7158 59.1756 36.1474C59.058 36.4087 58.8588 36.6178 58.5778 36.7746C58.2969 36.9249 57.9343 37 57.49 37C57.4182 37 57.3692 36.9673 57.343 36.902C57.3104 36.8367 57.294 36.7158 57.294 36.5394C57.294 36.3565 57.3104 36.2323 57.343 36.167C57.3692 36.1017 57.4182 36.069 57.49 36.069C57.8624 36.069 58.1466 36.02 58.3426 35.922C58.5452 35.824 58.6824 35.6737 58.7542 35.4712C58.8326 35.2687 58.8686 34.9943 58.862 34.648L58.813 32.149C58.8 31.2801 58.751 30.6267 58.666 30.189L59.401 29.846C59.4729 30.0159 59.5219 30.2576 59.548 30.5712C59.5807 30.8783 59.597 31.3062 59.597 31.855V34.599Z" fill="black"/>
<path d="M63.3697 35.824C63.3697 36.0984 63.3011 36.3205 63.1639 36.4904C63.0267 36.6603 62.7849 36.7877 62.4387 36.8726C62.0989 36.9575 61.6253 37 61.0177 37H60.7727C60.7008 37 60.6518 36.9673 60.6257 36.902C60.593 36.8367 60.5767 36.7125 60.5767 36.5296C60.5767 36.3532 60.593 36.2323 60.6257 36.167C60.6518 36.1017 60.7008 36.069 60.7727 36.069H61.2627C61.9095 36.069 62.357 36.02 62.6053 35.922C62.6053 35.9155 62.5857 35.7489 62.5465 35.4222C62.5399 35.3634 62.5105 35.1445 62.4583 34.7656C62.4125 34.3801 62.3897 34.0469 62.3897 33.766C62.3897 33.6353 62.3995 33.521 62.4191 33.423L63.2423 33.276V33.619C63.2423 33.8215 63.2651 34.2429 63.3109 34.8832C63.3501 35.3667 63.3697 35.6803 63.3697 35.824ZM61.2137 39.548V38.568H62.2917V39.548H61.2137Z" fill="black"/>
<path d="M69.8423 34.599C69.9729 35.0237 70.0938 35.3405 70.2048 35.5496C70.3224 35.7521 70.4564 35.8893 70.6067 35.9612C70.7569 36.0331 70.9594 36.069 71.2142 36.069V37H71.1162C70.6654 37 70.3061 36.9085 70.0383 36.7256C69.7769 36.5427 69.5809 36.2356 69.4502 35.8044C69.2608 36.2225 68.9504 36.5427 68.5192 36.7648C68.088 36.9869 67.6307 37.098 67.1473 37.098C66.6638 37.098 66.2555 36.951 65.9223 36.657L66.3143 35.922C66.4515 36.0135 66.5919 36.0788 66.7356 36.118C66.8859 36.1507 67.0558 36.167 67.2453 36.167C67.5523 36.167 67.8463 36.1115 68.1273 36.0004C68.4082 35.8893 68.6336 35.7423 68.8035 35.5594C68.9733 35.3699 69.0583 35.1641 69.0583 34.942C69.0583 34.8113 68.9799 34.5108 68.8231 34.0404C68.6989 33.6353 68.6075 33.325 68.5487 33.1094C68.4964 32.8938 68.4702 32.688 68.4702 32.492L69.2053 32.198C69.2902 32.7141 69.5025 33.5145 69.8423 34.599Z" fill="black"/>
<path d="M74.6929 35.824C74.6929 36.0984 74.6243 36.3205 74.4871 36.4904C74.3499 36.6603 74.1081 36.7877 73.7619 36.8726C73.4221 36.9575 72.9485 37 72.3409 37H71.2139C71.142 37 71.093 36.9673 71.0669 36.902C71.0342 36.8367 71.0179 36.7125 71.0179 36.5296C71.0179 36.3532 71.0342 36.2323 71.0669 36.167C71.093 36.1017 71.142 36.069 71.2139 36.069H72.5859C73.2392 36.069 73.6867 36.02 73.9285 35.922C73.9285 35.9155 73.9089 35.7489 73.8697 35.4222C73.8631 35.3634 73.8337 35.1445 73.7815 34.7656C73.7357 34.3801 73.7129 34.0469 73.7129 33.766C73.7129 33.6353 73.7227 33.521 73.7423 33.423L74.5655 33.276V33.619C74.5655 33.8215 74.5883 34.2429 74.6341 34.8832C74.6733 35.3667 74.6929 35.6803 74.6929 35.824ZM71.0179 38.7738C71.0897 38.6954 71.1943 38.6399 71.3315 38.6072C71.4752 38.5811 71.7137 38.568 72.0469 38.568H73.8599V39.352H72.0469C71.6549 39.352 71.3609 39.3847 71.1649 39.45L71.0179 38.7738Z" fill="black"/>
<path d="M78.9034 36.069V37H78.8054C78.2501 37 77.8679 36.8857 77.6588 36.657C77.6 37.4083 77.3877 38.0061 77.0218 38.4504C76.6625 38.8947 76.0974 39.2605 75.3264 39.548L74.9834 38.715C75.5257 38.4929 75.9275 38.2903 76.1888 38.1074C76.4567 37.9245 76.6396 37.7121 76.7376 37.4704C76.8422 37.2352 76.8944 36.9151 76.8944 36.51C76.8944 36.118 76.8291 35.334 76.6984 34.158L77.5804 33.913L77.7176 35.236C77.7764 35.7913 78.139 36.069 78.8054 36.069H78.9034Z" fill="black"/>
<path d="M81.2508 32.884C81.4468 32.884 81.6657 32.9199 81.9074 32.9918C82.1492 33.0571 82.4497 33.1584 82.809 33.2956C83.3317 33.4851 83.789 33.6321 84.181 33.7366C84.5796 33.8411 84.9912 33.8999 85.4158 33.913L85.2198 34.697C85.0565 34.7035 84.8213 34.6937 84.5142 34.6676C84.2529 35.3209 84.0634 35.7064 83.9458 35.824C83.5734 36.1964 83.0475 36.4871 82.368 36.6962C81.6886 36.8987 80.7608 37 79.5848 37H78.8988C78.827 37 78.778 36.9673 78.7518 36.902C78.7192 36.8367 78.7028 36.7125 78.7028 36.5296C78.7028 36.3532 78.7192 36.2323 78.7518 36.167C78.778 36.1017 78.827 36.069 78.8988 36.069H79.6828C80.7935 36.069 81.6102 36.0069 82.1328 35.8828C82.6555 35.7521 83.0638 35.5692 83.3578 35.334C83.3905 35.3013 83.4493 35.2099 83.5342 35.0596C83.6257 34.9093 83.7204 34.7297 83.8184 34.5206C83.4983 34.4291 83.1324 34.3148 82.7208 34.1776C82.3027 34.0469 81.9826 33.9555 81.7604 33.9032C81.5448 33.8444 81.3423 33.815 81.1528 33.815C80.9176 33.815 80.7445 33.8934 80.6334 34.0502C80.5289 34.2005 80.4244 34.4814 80.3198 34.893L79.6828 34.697C79.8004 34.0502 79.9801 33.5863 80.2218 33.3054C80.4636 33.0245 80.8066 32.884 81.2508 32.884ZM80.9078 31.659V30.679H81.9858V31.659H80.9078Z" fill="black"/>
</svg>
