<?xml version="1.0" encoding="UTF-8"?>
<svg xmlns="http://www.w3.org/2000/svg" viewBox="0 0 1553.91 1553.91">
  <defs>
    <style>
      .cls-1 {
        fill: #fff;
      }

      .cls-2 {
        fill: #d10f0f;
      }

      .cls-3, .cls-4 {
        fill: #c4bebe;
      }

      .cls-4 {
        mix-blend-mode: multiply;
      }

      .cls-5 {
        isolation: isolate;
      }
    </style>
  </defs>
  <g class="cls-5">
    <g id="Layer_2" data-name="Layer 2">
      <g id="Layer_1-2" data-name="Layer 1">
        <g>
          <rect class="cls-1" width="1553.91" height="1553.91"/>
          <g>
            <path class="cls-4" d="M1265.96,783.6H314.57s-35.07,172.08,66.71,335.69c0,0,122.2,3.36,231.32-11.78,0,0-66.26-146.83-64.18-323.35,.1,14.15-22.29,172.54,87.99,314.1,0,0,123.47,3.23,205.99-1.91-60.98-115.8-59.21-242.62-59.21-242.62,.93,84.7,37.15,180.6,89.95,248.16,43.79-.37,144.87-1.97,194.29-7.89,0,0-65.33-167.4-57.48-310.4,6.17,194.03,80.19,320.77,80.19,320.77,122.25,12.34,241.47-3.59,241.47-3.59-86.64-187.87-65.66-317.18-65.66-317.18Z"/>
            <path class="cls-1" d="M1262.71,743.27V137.62H311.32V743.27s6.73,141.32-79.91,329.19c0,0,133.47,3.93,255.72-8.41,0,0,74.02-126.74,80.19-320.77,7.85,143-57.48,310.4-57.48,310.4,59.72,7.15,238.9,7.99,238.9,7.99,1.64-3.53,3.22-7.15,4.75-10.86,83.25,5.28,163.07,4.55,163.07,4.55,110.28-141.56,112.2-297.37,112.3-311.52,2.08,176.53-93.37,317.83-93.37,317.83,103.89,5.05,234.27-2.94,234.27-2.94,101.78-163.61,92.95-315.45,92.95-315.45Z"/>
            <path class="cls-3" d="M1267.12,743.16V133.2H306.91V743.48c.07,1.4,5.7,142.38-79.51,327.13l-2.8,6.07,6.68,.2c.51,.02,20.39,.58,51.54,.58,50.29,0,129.95-1.46,204.76-9.01l2.24-.22,1.13-1.94c.41-.7,22.59-39.3,43.66-105.56-14.29,53.56-28.57,90.57-28.88,91.35l-2.07,5.31,5.66,.68c59.29,7.1,237.61,8.01,239.41,8.02h2.83s1.19-2.55,1.19-2.55c1.21-2.6,2.42-5.32,3.61-8.12,81.34,5.02,159.46,4.37,160.24,4.37l2.13-.02,1.31-1.68c29.63-38.04,51.53-77,67.7-114.03-25.64,69.66-55.38,114.37-55.91,115.15l-4.39,6.5,7.83,.38c102.95,5.01,233.45-2.87,234.76-2.95l2.27-.14,1.2-1.94c99.98-160.71,93.89-312.34,93.62-317.89Zm-99.92,311.28c-17.36,.99-130.31,7.09-223.92,3.15,18.43-29.97,91.8-159.22,89.98-313.81l-8.83,.02c-.19,27.83-6.38,172.92-110.06,307.15-.71,0-1.58,0-2.63,.01-.04,0-.09,0-.13,0-.37,0-.75,0-1.16,0-.05,0-.1,0-.16,0-.43,0-.88,0-1.35,0-.14,0-.29,0-.43,0-.37,0-.75,0-1.14,0-.13,0-.25,0-.38,0-31.73,0-136.67-.77-220.77-10.4,23.07-28.68,114.04-150.99,115.15-297.26l-8.83-.07c-1.23,163.33-117.03,296.51-118.2,297.84l-5.54,6.28,8.31,1.02c22.19,2.74,46.07,4.82,69.87,6.41-.36,.82-.71,1.64-1.07,2.44-22.45-.14-170.84-1.32-229.95-7.33,10.98-29.91,62.79-178.88,55.77-306.87l-8.82,.1c-5.65,177.74-69.37,300.07-78.51,316.75-104.52,10.36-217.89,8.89-246.19,8.32,83.19-183.7,77.59-323.72,77.53-324.93V142.03h942.55V743.53c.09,1.5,7.55,151.08-91.08,310.91Z"/>
            <path class="cls-2" d="M994.14,569.75c-9.6,0-18.51-6.15-21.57-15.79-3.77-11.92,2.82-24.64,14.74-28.42,106.89-33.91,108.46-60.05,109.31-74.09,1.31-21.91-15.77-50.53-22.46-59.7-7.36-10.08-5.18-24.23,4.89-31.61,10.04-7.37,24.18-5.25,31.59,4.82,3.45,4.69,33.7,47.08,31.16,89.22-3.08,51.24-42.57,83.35-140.81,114.51-2.27,.72-4.58,1.06-6.85,1.06Z"/>
            <path class="cls-2" d="M687.47,649.64c-6.68,0-13.28-2.94-17.75-8.58-7.76-9.79-6.11-24.03,3.69-31.79,46.39-36.72,77.34-69.69,97.89-98.05-11.4-5.47-23.23-14.23-29.6-28.11-5.91-12.9-8.85-34.39,10.72-63.51,28-41.62,56.37-51.26,67.26-53.47,14.68-3.01,28.84,5.64,33.01,20,2.89,9.89,9.36,42.48-10.53,91.29,27.13-.68,48.88-7.8,65.15-21.3,31.36-26,33.44-68.68,33.46-69.11,.5-12.44,10.51-22.18,23.41-21.76,12.43,.44,22.19,10.79,21.82,23.23-.08,2.54-2.41,62.75-49.29,102.04-29.6,24.82-69.23,35.35-118.04,31.44-23.08,35.83-59.7,77.28-117.18,122.78-4.16,3.29-9.12,4.89-14.04,4.89Zm122.9-228.51c-5.96,5.12-12.95,12.65-20.38,23.72-7.53,11.19-8.04,17.45-7.15,19.39,1.37,2.98,6.55,5.87,12.17,7.92,10.39-21.43,14.24-38.65,15.37-51.03Z"/>
            <path class="cls-2" d="M670.6,528.07c-1.11,0-2.23-.08-3.36-.25-12.36-1.84-20.89-13.36-19.04-25.72,15.02-100.74,20.55-260.83,20.61-262.44,.42-12.49,10.36-22.29,23.38-21.86,12.48,.42,22.27,10.89,21.84,23.38-.22,6.66-5.66,164.27-21.08,267.59-1.67,11.23-11.33,19.3-22.36,19.3Z"/>
            <path class="cls-2" d="M454.72,649.64c-7,0-13.89-3.23-18.32-9.32-7.35-10.11-5.11-24.26,5-31.61,124.95-90.84,130.58-206.58,130.76-211.47,.47-12.45,10.92-22.47,23.36-21.83,12.46,.41,22.24,10.76,21.89,23.22-.16,5.76-5.7,142.22-149.39,246.69-4.02,2.93-8.67,4.33-13.29,4.33Z"/>
            <path class="cls-2" d="M838.56,602.25c-12.11,0-22.14-9.58-22.59-21.77-.48-12.49,9.27-22.99,21.75-23.47,.35-.02,36.02-1.5,86.38-12.41,12.2-2.62,24.26,5.1,26.9,17.32,2.65,12.21-5.11,24.26-17.32,26.91-54.55,11.83-92.68,13.34-94.27,13.41-.29,0-.57,.01-.85,.01Z"/>
            <g>
              <path class="cls-3" d="M1117.87,741.59h-19.52c-1.78,0-3.23,1.45-3.23,3.23s1.45,3.23,3.23,3.23h19.52c1.78,0,3.23-1.45,3.23-3.23s-1.45-3.23-3.23-3.23Z"/>
              <path class="cls-3" d="M1078.82,741.59h-19.52c-1.78,0-3.23,1.45-3.23,3.23s1.45,3.23,3.23,3.23h19.52c1.78,0,3.23-1.45,3.23-3.23s-1.45-3.23-3.23-3.23Z"/>
              <path class="cls-3" d="M1195.99,741.59h-19.53c-1.79,0-3.23,1.45-3.23,3.23s1.44,3.23,3.23,3.23h19.53c1.79,0,3.23-1.45,3.23-3.23s-1.44-3.23-3.23-3.23Z"/>
              <path class="cls-3" d="M1156.93,741.59h-19.53c-1.79,0-3.23,1.45-3.23,3.23s1.44,3.23,3.23,3.23h19.53c1.79,0,3.23-1.45,3.23-3.23s-1.44-3.23-3.23-3.23Z"/>
              <path class="cls-3" d="M1235.03,741.59h-19.53c-1.79,0-3.23,1.45-3.23,3.23s1.44,3.23,3.23,3.23h19.53c1.79,0,3.23-1.45,3.23-3.23s-1.44-3.23-3.23-3.23Z"/>
              <path class="cls-3" d="M887.31,741.59h-19.52c-1.78,0-3.23,1.45-3.23,3.23s1.45,3.23,3.23,3.23h19.52c1.78,0,3.23-1.45,3.23-3.23s-1.45-3.23-3.23-3.23Z"/>
              <path class="cls-3" d="M848.25,741.59h-19.52c-1.78,0-3.23,1.45-3.23,3.23s1.45,3.23,3.23,3.23h19.52c1.78,0,3.23-1.45,3.23-3.23s-1.45-3.23-3.23-3.23Z"/>
              <path class="cls-3" d="M926.36,741.59h-19.53c-1.79,0-3.23,1.45-3.23,3.23s1.44,3.23,3.23,3.23h19.53c1.79,0,3.23-1.45,3.23-3.23s-1.44-3.23-3.23-3.23Z"/>
              <path class="cls-3" d="M965.43,741.59h-19.53c-1.79,0-3.23,1.45-3.23,3.23s1.44,3.23,3.23,3.23h19.53c1.79,0,3.23-1.45,3.23-3.23s-1.44-3.23-3.23-3.23Z"/>
              <path class="cls-3" d="M1004.47,741.59h-19.53c-1.79,0-3.23,1.45-3.23,3.23s1.44,3.23,3.23,3.23h19.53c1.79,0,3.23-1.45,3.23-3.23s-1.44-3.23-3.23-3.23Z"/>
              <path class="cls-3" d="M656.07,741.59h-19.52c-1.78,0-3.23,1.45-3.23,3.23s1.45,3.23,3.23,3.23h19.52c1.78,0,3.23-1.45,3.23-3.23s-1.45-3.23-3.23-3.23Z"/>
              <path class="cls-3" d="M617.02,741.59h-19.52c-1.78,0-3.23,1.45-3.23,3.23s1.45,3.23,3.23,3.23h19.52c1.78,0,3.23-1.45,3.23-3.23s-1.45-3.23-3.23-3.23Z"/>
              <path class="cls-3" d="M695.12,741.59h-19.53c-1.79,0-3.23,1.45-3.23,3.23s1.44,3.23,3.23,3.23h19.53c1.79,0,3.23-1.45,3.23-3.23s-1.44-3.23-3.23-3.23Z"/>
              <path class="cls-3" d="M734.19,741.59h-19.53c-1.79,0-3.23,1.45-3.23,3.23s1.44,3.23,3.23,3.23h19.53c1.79,0,3.23-1.45,3.23-3.23s-1.44-3.23-3.23-3.23Z"/>
              <path class="cls-3" d="M773.23,741.59h-19.53c-1.79,0-3.23,1.45-3.23,3.23s1.44,3.23,3.23,3.23h19.53c1.79,0,3.23-1.45,3.23-3.23s-1.44-3.23-3.23-3.23Z"/>
              <path class="cls-3" d="M404.35,741.59h-19.52c-1.78,0-3.23,1.45-3.23,3.23s1.45,3.23,3.23,3.23h19.52c1.78,0,3.23-1.45,3.23-3.23s-1.45-3.23-3.23-3.23Z"/>
              <path class="cls-3" d="M443.4,741.59h-19.53c-1.79,0-3.23,1.45-3.23,3.23s1.44,3.23,3.23,3.23h19.53c1.79,0,3.23-1.45,3.23-3.23s-1.44-3.23-3.23-3.23Z"/>
              <path class="cls-3" d="M365.29,741.59h-19.52c-1.78,0-3.23,1.45-3.23,3.23s1.45,3.23,3.23,3.23h19.52c1.78,0,3.23-1.45,3.23-3.23s-1.45-3.23-3.23-3.23Z"/>
              <path class="cls-3" d="M482.47,741.59h-19.53c-1.79,0-3.23,1.45-3.23,3.23s1.44,3.23,3.23,3.23h19.53c1.79,0,3.23-1.45,3.23-3.23s-1.44-3.23-3.23-3.23Z"/>
              <path class="cls-3" d="M521.51,741.59h-19.53c-1.79,0-3.23,1.45-3.23,3.23s1.44,3.23,3.23,3.23h19.53c1.79,0,3.23-1.45,3.23-3.23s-1.44-3.23-3.23-3.23Z"/>
            </g>
          </g>
          <g>
            <path class="cls-2" d="M516.13,1419.41c-9.44,0-18.89,.27-28.33-.06-15.88-.57-21.98-8.26-18.47-23.75,2.6-11.49,6.11-22.78,9.17-34.17,8.14-30.27,16.17-60.57,24.42-90.81,4.9-17.98,10.99-22.7,29.45-22.51,15.15,.15,30.38,0,45.43,1.49,61.5,6.06,77.46,56.02,61.95,100.93-14.92,43.19-48.86,62.51-92.32,67.58-10.36,1.21-20.85,1.2-31.29,1.75,0-.15-.01-.29-.02-.44Zm-5.73-34.9c22.87,1.61,43.49,1.06,62.67-9.14,19.67-10.46,30.29-26.99,32.31-49.17,1.96-21.57-8.41-37.04-29.69-41.39-10.74-2.2-22.03-2.17-33.06-2.02-2.36,.03-5.88,4.62-6.78,7.72-6.3,21.63-12.09,43.42-17.96,65.17-2.44,9.01-4.7,18.07-7.48,28.84Z"/>
            <path class="cls-2" d="M914.11,1408.52c-10.81,4.37-20.34,9.72-30.56,12.05-19.2,4.37-36.54-4.18-43.41-19.54-7.06-15.78-1.85-37.18,12.45-48.54,19.43-15.43,41.77-15.05,64.62-10.83,3.96,.73,7.86,1.75,11.7,2.62,7.38-12.46,2.74-23.52-11.44-24.8-10.24-.92-20.81,.44-31.1,1.81-12.05,1.6-18.98-1.05-21.25-9.66-2.55-9.71,2.24-17.76,14.95-19.51,17.84-2.46,36.25-5,53.96-3.14,26.26,2.76,39.38,21.9,34.16,47.45-4.72,23.09-11.71,45.71-17.71,68.53-.17,.65-.45,1.27-.74,1.88-3.95,8.13-9.58,13.52-19.41,13.68-9.35,.15-14.41-4.49-16.2-12Zm10.18-42.3c-14.52-4.32-28.44-7.75-41.95,1.15-6.35,4.19-9.55,10.53-7.27,18.29,2.23,7.6,8.31,9.96,15.62,10.18,15.62,.46,29.45-11.14,33.6-29.62Z"/>
            <path class="cls-2" d="M772.13,1371.71c14.04-22.13,27.97-44.34,42.21-66.34,3.43-5.3,7.31-10.65,12.08-14.68,6.96-5.87,17.92-5.36,23.22,.34,6.43,6.9,4.79,14.38,.04,21.27-22.19,32.19-44.53,64.29-66.88,96.38-5.26,7.55-12.24,12.43-21.76,12.99-11.82,.69-18.92-4.3-20.81-15.94-5.2-31.93-10.22-63.89-14.87-95.91-1.84-12.62,3.66-20.33,14.67-22.66,11.3-2.39,21.19,4.28,22.52,15.77,2.2,19.08,3.98,38.21,5.94,57.33,.37,3.61,.72,7.21,1.08,10.82l2.56,.64Z"/>
            <path class="cls-2" d="M1036.68,1304.12c4.94-4.33,9.4-8.82,14.43-12.51,6.57-4.81,14.84-8,21.45-2.51,4.35,3.61,7,11,7.61,16.99,.87,8.5-5.65,13.57-13.26,15.61-27.97,7.48-42.2,27.08-48.82,53.82-2.18,8.82-4.29,17.72-7.42,26.21-1.91,5.18-4.65,11.87-8.92,13.92-5.95,2.86-14.18,3.93-20.51,2.27-7.32-1.92-8.51-9.91-7.04-16.99,1.98-9.54,4.46-18.99,6.98-28.42,5.21-19.51,10.57-38.98,15.88-58.46,.88-3.25,1.65-6.54,2.72-9.72,3.73-11.21,11.52-17.93,20.85-17.56,11.11,.43,15.66,7.47,16.05,17.36Z"/>
            <path class="cls-2" d="M707.41,1300.12c-.87,3.44-2.16,8.67-3.53,13.88-7.11,27.06-14.2,54.13-21.38,81.18-.95,3.57-2.02,7.19-3.62,10.5-5.08,10.49-15.43,15.2-25.02,11.7-8.39-3.07-11.94-11.03-8.99-22.99,5.33-21.6,11.22-43.06,16.94-64.56,2.95-11.07,5.07-22.51,9.44-33,2.48-5.95,7.82-12.24,13.5-15,12.1-5.87,23.3,2.93,22.66,18.31Z"/>
            <path class="cls-2" d="M710.19,1228.8c14.41,.11,20.29,8.2,16.38,22.5-5.01,18.28-13.89,25.35-29.41,23.41-10.93-1.37-15.85-8.08-13.86-18.91,3.4-18.51,11.98-27.11,26.9-26.99Z"/>
          </g>
        </g>
      </g>
    </g>
  </g>
</svg>